<?xml version="1.0" encoding="UTF-8" standalone="no"?><!-- Generator: Gravit.io --><svg xmlns="http://www.w3.org/2000/svg" xmlns:xlink="http://www.w3.org/1999/xlink" style="isolation:isolate" viewBox="0 0 250 200" width="250pt" height="200pt"><defs><clipPath id="_clipPath_jLW20CqVMepZQz60KIJOptIvA4Ydl4PA"><rect width="250" height="200"/></clipPath></defs><g clip-path="url(#_clipPath_jLW20CqVMepZQz60KIJOptIvA4Ydl4PA)"><rect width="250" height="200" style="fill:rgb(245,242,255)"/><rect x="3.831" y="5.618" width="235.253" height="188.553" transform="matrix(1,0,0,1,0,0)" fill="rgb(245,242,255)"/><circle vector-effect="non-scaling-stroke" cx="174.838202247191" cy="77.95898876404496" r="4.574157303370782" fill="rgb(51,36,99)"/><path d=" M 208.744 94.196 C 221.528 97.933 230.393 106.081 230.393 115.52 C 230.393 128.504 213.618 139.045 192.955 139.045 C 172.292 139.045 155.517 128.504 155.517 115.52 C 155.517 102.536 172.292 91.994 192.955 91.994 C 197.868 91.994 202.562 92.59 206.852 93.687" fill="none" vector-effect="non-scaling-stroke" stroke-width="4" stroke="rgb(51,36,99)" stroke-linejoin="miter" stroke-linecap="square" stroke-miterlimit="3"/><path d=" M 206.852 93.687 C 207.49 93.847 208.12 94.017 208.744 94.196" fill="none" vector-effect="non-scaling-stroke" stroke-width="4" stroke="rgb(0,0,0)" stroke-linejoin="miter" stroke-linecap="square" stroke-miterlimit="3"/><rect x="141.121" y="113.062" width="30.548" height="7.251" transform="matrix(1,0,0,1,0,0)" fill="rgb(245,242,255)"/><line x1="198.906" y1="98.469" x2="202.156" y2="82.406" vector-effect="non-scaling-stroke" stroke-width="1" stroke="rgb(245,242,255)" stroke-linejoin="miter" stroke-linecap="square" stroke-miterlimit="3"/><rect x="194.168" y="84.212" width="40.247" height="76.896" transform="matrix(0.985,0.174,-0.174,0.985,24.577,-35.374)" fill="rgb(245,242,255)"/><rect x="164.295" y="133.778" width="42.486" height="11.938" transform="matrix(1,0,0,1,0,0)" fill="rgb(245,242,255)"/><defs><filter id="jRixl6kO703Ot7Ld8WTxpWdsWY4fPFPc" x="-200%" y="-200%" width="400%" height="400%" filterUnits="objectBoundingBox" color-interpolation-filters="sRGB"><feGaussianBlur xmlns="http://www.w3.org/2000/svg" in="SourceGraphic" stdDeviation="6.440413594258542"/><feOffset xmlns="http://www.w3.org/2000/svg" dx="0" dy="0" result="pf_100_offsetBlur"/><feFlood xmlns="http://www.w3.org/2000/svg" flood-color="#FF0000" flood-opacity="0.4"/><feComposite xmlns="http://www.w3.org/2000/svg" in2="pf_100_offsetBlur" operator="in" result="pf_100_dropShadow"/><feBlend xmlns="http://www.w3.org/2000/svg" in="SourceGraphic" in2="pf_100_dropShadow" mode="normal"/></filter></defs><g filter="url(#jRixl6kO703Ot7Ld8WTxpWdsWY4fPFPc)"><path d=" M 30.538 12.226 L 30.538 25.721 L 57.528 25.721 C 60.43 25.721 62.9 27.611 63.858 30.364 L 76.449 142.807 C 77.662 153.028 86.306 160.739 96.598 160.783 L 178.987 160.783 L 178.987 147.288 L 96.598 147.288 C 93.16 147.335 90.253 144.755 89.89 141.336 L 89.054 133.793 L 174.669 133.793 C 184.25 133.793 192.644 126.937 194.534 117.558 L 207.462 52.82 L 79.931 52.82 L 77.029 27.098 L 76.827 26.463 C 74.193 18.013 66.38 12.249 57.528 12.226 L 30.538 12.226 Z  M 165.492 160.783 C 158.069 160.783 151.996 166.856 151.996 174.279 C 151.996 181.701 158.069 187.774 165.492 187.774 C 172.914 187.774 178.987 181.701 178.987 174.279 C 178.987 166.856 172.914 160.783 165.492 160.783 Z  M 98.015 160.783 C 90.592 160.783 84.519 166.856 84.519 174.279 C 84.519 181.701 90.592 187.774 98.015 187.774 C 105.437 187.774 111.51 181.701 111.51 174.279 C 111.51 166.856 105.437 160.783 98.015 160.783 Z  M 81.456 66.315 L 191.012 66.315 L 181.295 114.872 C 180.673 118.036 177.893 120.312 174.669 120.297 L 87.529 120.297 L 81.456 66.315 Z " fill="rgb(51,36,99)"/></g><path d=" M 199.75 94.25 C 200.956 93.163 201.123 91.575 201.625 90.125" fill="none"/><path d=" M 203.5 88.5 C 202.785 97.049 202.913 101.77 207.25 91.125" fill="none"/><path d=" M 207.625 90.625 C 206.471 90.288 205.458 89.625 204.375 89.125" fill="none"/><line x1="204.375" y1="93.625" x2="217.375" y2="91.5"/><line x1="199.203" y1="94.352" x2="200.008" y2="90.383" vector-effect="non-scaling-stroke" stroke-width="0.1" stroke="rgb(255,255,255)" stroke-linejoin="miter" stroke-linecap="square" stroke-miterlimit="3"/></g></svg>